 <svg  version="1.0" xmlns="http://www.w3.org/2000/svg"  width="900.000000pt" height="1038.000000pt" viewBox="0 0 900.000000 1038.000000"  preserveAspectRatio="xMidYMid meet">  <g transform="translate(0.000000,1038.000000) scale(0.100000,-0.100000)" fill="#cc0000" stroke="none"> <path d="M3393 10040 c-84 -20 -133 -94 -178 -270 -9 -36 -22 -87 -30 -115 -26 -100 -36 -141 -44 -180 -4 -22 -13 -58 -18 -80 -20 -73 -36 -140 -43 -180 -8 -41 -22 -103 -45 -190 -23 -86 -37 -148 -46 -195 -4 -25 -15 -72 -23 -105 -18 -75 -39 -164 -65 -285 -12 -52 -24 -97 -29 -100 -4 -4 -43 -15 -87 -24 -206 -45 -429 -110 -575 -166 -30 -12 -66 -25 -80 -29 -30 -10 -161 -79 -216 -114 -58 -36 -118 -107 -139 -161 -18 -47 -18 -50 -1 -100 10 -28 34 -70 53 -94 31 -38 204 -177 243 -195 8 -4 29 -16 45 -27 31 -19 277 -143 330 -165 17 -7 48 -20 70 -28 22 -8 59 -22 83 -31 106 -40 181 -66 217 -75 17 -4 40 -13 52 -19 12 -7 30 -12 41 -12 11 0 41 -9 66 -21 45 -20 47 -22 44 -57 -3 -42 -6 -43 -161 -107 -94 -39 -286 -135 -358 -181 -189 -118 -259 -170 -259 -194 0 -17 56 -84 176 -210 141 -148 163 -175 155 -188 -4 -7 -36 -18 -72 -26 -35 -7 -84 -19 -109 -25 -25 -7 -71 -19 -102 -27 -130 -32 -185 -47 -223 -60 -23 -8 -48 -14 -57 -14 -10 0 -32 -6 -50 -14 -18 -8 -69 -29 -113 -47 -143 -59 -241 -127 -351 -241 -64 -66 -159 -189 -211 -273 -67 -109 -154 -311 -198 -460 -10 -33 -23 -78 -30 -100 -37 -119 -94 -321 -118 -420 -8 -33 -20 -80 -27 -105 -6 -25 -15 -63 -19 -85 -5 -22 -14 -62 -20 -90 -7 -27 -17 -70 -23 -95 -6 -25 -12 -58 -15 -75 -2 -16 -10 -64 -18 -105 -8 -41 -20 -115 -26 -164 -15 -103 -10 -111 70 -121 25 -4 78 -12 116 -20 137 -26 368 -62 580 -90 66 -9 164 -23 217 -31 53 -8 114 -14 135 -14 21 0 87 -7 148 -15 159 -21 382 -38 394 -30 13 7 9 80 -14 245 -8 58 -21 159 -30 225 -9 66 -22 165 -30 220 -8 55 -21 152 -30 215 -9 63 -22 159 -30 213 -8 53 -21 141 -29 195 -8 53 -20 131 -26 172 -7 41 -16 109 -20 150 -4 41 -13 109 -19 150 -7 41 -18 116 -26 165 -8 50 -19 122 -25 160 -6 39 -15 105 -20 148 -5 43 -14 101 -20 130 -7 29 -10 66 -8 82 l3 30 800 3 c465 1 803 6 808 11 6 6 -9 33 -36 68 -25 33 -55 77 -67 99 -12 21 -30 55 -42 74 -44 76 -103 201 -119 250 -4 14 -17 50 -29 80 -12 30 -25 69 -30 85 -5 17 -13 44 -18 60 -6 17 -17 55 -25 85 -57 212 -60 253 -11 199 65 -73 228 -164 374 -210 68 -21 92 -23 250 -22 96 1 189 3 205 5 l30 3 0 -65 c0 -36 -6 -105 -13 -155 -13 -99 -16 -533 -4 -552 6 -10 280 -13 1293 -15 l1284 -3 -3 -75 c-2 -41 -10 -106 -18 -143 -8 -38 -14 -85 -14 -105 0 -20 -6 -73 -14 -117 -15 -84 -37 -218 -61 -370 -7 -49 -21 -131 -29 -181 -9 -50 -16 -104 -16 -120 0 -16 -7 -65 -15 -109 -8 -44 -21 -127 -30 -185 -26 -174 -45 -291 -60 -376 -8 -45 -15 -97 -15 -115 0 -19 -7 -59 -15 -89 -8 -30 -15 -73 -15 -95 0 -22 -7 -65 -15 -95 -8 -30 -15 -71 -15 -90 0 -19 -7 -67 -15 -105 -19 -91 -19 -124 1 -132 18 -7 224 10 389 32 61 8 126 15 145 15 19 0 80 6 135 14 55 9 154 22 220 31 211 28 447 65 570 90 39 8 91 17 117 20 26 3 56 14 67 23 19 16 19 20 4 97 -8 44 -21 116 -29 160 -20 109 -43 219 -59 285 -7 30 -21 91 -31 135 -9 44 -21 94 -26 110 -5 17 -13 50 -18 75 -4 25 -13 59 -18 75 -6 17 -17 55 -26 85 -37 138 -73 259 -91 310 -7 19 -18 51 -24 70 -7 19 -17 49 -21 65 -11 40 -38 111 -49 133 -5 9 -19 37 -31 62 -23 47 -27 55 -74 135 -85 144 -260 337 -377 415 -33 22 -63 40 -66 40 -4 0 -14 6 -22 13 -15 12 -124 60 -211 92 -36 13 -118 37 -205 60 -27 8 -75 21 -106 29 -31 9 -65 16 -76 16 -11 0 -37 7 -56 15 -20 8 -47 15 -59 15 -13 0 -42 9 -66 20 l-44 20 58 67 c31 38 97 111 145 163 48 52 99 108 114 124 14 15 24 33 22 40 -4 11 -157 135 -168 136 -3 0 -35 19 -71 43 -35 23 -98 59 -139 80 -41 21 -81 42 -89 47 -8 4 -46 23 -85 40 -38 18 -82 39 -97 46 -14 8 -33 14 -42 14 -28 0 -57 42 -54 79 3 39 6 41 203 105 61 19 135 45 165 56 30 12 67 25 81 30 14 4 34 12 45 17 10 6 35 17 54 25 255 112 475 248 583 362 47 51 87 126 87 165 0 75 -85 177 -205 248 -82 48 -305 140 -420 173 -174 51 -283 81 -325 90 -143 31 -184 47 -188 75 -1 11 -9 45 -16 75 -8 30 -22 91 -31 135 -9 44 -21 100 -27 125 -6 25 -14 65 -18 90 -4 25 -18 88 -30 140 -12 52 -26 113 -30 135 -4 22 -18 83 -29 135 -12 52 -24 109 -27 125 -3 17 -11 55 -19 85 -7 30 -20 82 -28 115 -8 33 -20 80 -27 105 -6 25 -15 63 -20 85 -31 141 -75 231 -138 283 -43 35 -49 37 -116 36 -62 0 -86 -7 -196 -53 -69 -29 -154 -67 -190 -83 -238 -112 -217 -108 -613 -108 -379 0 -369 -1 -527 72 -36 17 -90 41 -120 55 -30 14 -82 37 -115 53 -136 62 -191 75 -252 60z m-41 -278 c2 -5 48 -46 103 -92 55 -46 105 -89 110 -95 6 -6 33 -29 60 -50 28 -22 66 -54 85 -72 19 -17 49 -42 65 -54 17 -13 59 -48 95 -79 36 -31 85 -71 110 -90 25 -19 52 -41 61 -49 9 -9 27 -25 40 -36 13 -11 48 -39 76 -63 52 -43 75 -48 109 -21 6 5 44 26 85 47 41 22 90 49 109 60 19 11 71 39 115 61 44 23 107 56 140 74 103 57 278 150 313 166 17 8 32 19 32 23 0 4 8 8 17 8 9 0 25 8 35 17 14 12 21 14 30 5 8 -8 7 -13 -6 -18 -10 -4 -29 -17 -42 -29 -13 -13 -82 -62 -152 -110 -70 -47 -163 -112 -207 -142 -176 -123 -214 -149 -305 -210 -52 -35 -98 -70 -103 -79 -5 -9 -4 -37 3 -67 6 -29 18 -79 25 -112 25 -112 26 -115 14 -115 -10 0 -131 99 -149 121 -4 5 -51 46 -194 169 -16 14 -36 32 -45 40 -9 9 -45 40 -81 70 -36 30 -74 63 -85 73 -11 10 -58 51 -105 90 -47 40 -96 82 -110 95 -26 24 -40 28 -40 12 0 -9 88 -179 121 -234 10 -17 22 -38 26 -46 4 -8 20 -37 36 -65 16 -27 51 -90 77 -140 88 -167 112 -210 121 -220 11 -11 12 -45 2 -45 -8 0 -233 231 -405 413 -48 52 -80 78 -86 72 -12 -14 -38 -102 -85 -290 -9 -33 -21 -80 -28 -105 -6 -25 -15 -61 -19 -80 -4 -19 -20 -81 -35 -137 -39 -149 -39 -148 80 -207 94 -46 115 -55 198 -90 17 -7 49 -21 70 -30 21 -9 44 -16 52 -16 8 0 29 -6 47 -14 31 -13 72 -25 201 -60 226 -63 388 -79 737 -73 296 4 404 12 560 43 42 7 90 14 108 14 34 0 44 -17 15 -26 -10 -3 -36 -14 -58 -24 -22 -9 -74 -30 -115 -45 -41 -14 -91 -32 -110 -39 -37 -14 -96 -32 -193 -59 -31 -9 -81 -23 -110 -31 -28 -9 -66 -18 -83 -21 -18 -3 -40 -15 -49 -25 -17 -19 -17 -20 1 -27 17 -6 190 -109 262 -155 15 -10 34 -21 42 -25 8 -4 34 -20 56 -35 23 -15 46 -28 52 -28 5 0 17 -12 27 -26 l16 -25 -43 5 c-24 3 -164 8 -313 11 -305 6 -592 35 -765 77 -25 6 -65 14 -90 18 -191 31 -603 166 -782 257 -34 17 -97 17 -145 -1 -21 -7 -67 -22 -103 -31 -36 -10 -83 -23 -105 -30 -51 -16 -169 -50 -315 -91 -30 -8 -68 -20 -85 -26 -16 -6 -47 -13 -68 -15 -31 -4 -36 -2 -31 11 3 8 13 18 22 21 10 3 31 18 48 33 18 15 62 52 100 82 37 30 75 62 83 70 9 8 52 46 96 84 44 38 118 104 165 147 47 42 97 87 112 99 27 21 35 41 74 190 9 36 22 85 29 110 7 25 20 81 30 125 10 44 22 94 27 110 5 17 13 50 17 75 9 47 24 111 46 195 20 74 42 161 60 240 19 82 41 170 60 240 8 28 21 79 30 115 9 36 22 88 30 115 7 28 16 67 20 88 5 30 10 37 30 37 13 0 25 -4 27 -8z"/> <path d="M2360 5696 c0 -14 14 -69 30 -123 40 -129 54 -176 75 -248 9 -33 21 -73 27 -90 5 -16 14 -46 18 -65 8 -32 28 -100 66 -225 8 -27 19 -66 24 -85 8 -33 30 -108 66 -225 8 -27 19 -66 24 -85 5 -19 18 -66 30 -105 12 -38 25 -86 29 -106 4 -19 11 -42 16 -49 5 -7 12 -30 16 -49 4 -20 12 -49 17 -66 6 -16 18 -57 28 -90 9 -33 23 -80 30 -105 12 -40 40 -135 90 -310 8 -30 21 -75 29 -100 7 -25 21 -74 31 -110 9 -36 22 -71 27 -78 8 -9 338 -12 1616 -10 l1606 3 6 66 c4 36 12 83 18 105 6 21 11 55 11 74 0 19 6 68 14 110 28 143 46 257 46 284 0 15 7 66 15 114 17 93 34 197 60 357 9 55 22 137 30 181 8 45 15 95 15 110 0 16 6 65 15 109 24 137 52 310 89 563 8 53 20 129 26 167 6 39 12 77 13 85 2 13 -241 15 -2125 18 l-2128 2 0 -24z m2139 -807 c112 -35 198 -106 243 -198 19 -39 23 -62 22 -146 0 -89 -3 -106 -28 -153 -38 -75 -95 -133 -163 -167 -49 -25 -72 -30 -153 -33 -84 -3 -101 -1 -152 22 -278 124 -294 494 -28 645 65 37 191 51 259 30z"/> <path d="M2483 3244 c-3 -10 2 -50 12 -90 10 -39 15 -79 12 -88 -6 -14 -38 -16 -267 -16 -177 0 -260 -3 -260 -11 0 -19 32 -109 41 -115 5 -3 9 -11 9 -19 0 -7 16 -40 35 -72 32 -54 34 -64 36 -154 1 -53 -3 -104 -9 -115 -6 -10 -66 -73 -134 -140 l-123 -121 -102 0 c-110 -1 -129 -7 -211 -72 -125 -97 -150 -272 -59 -408 28 -43 63 -72 127 -107 52 -29 187 -26 254 4 63 29 138 103 165 165 28 63 28 156 1 225 -11 28 -20 59 -20 69 0 10 69 89 153 176 l152 158 5 121 5 121 325 0 325 0 3 -229 2 -229 -92 -92 c-335 -329 -921 -900 -977 -952 l-66 -63 -77 0 c-134 0 -235 -58 -288 -165 -26 -51 -30 -72 -30 -138 0 -95 26 -154 94 -214 48 -42 139 -83 185 -83 41 0 139 36 180 67 48 35 62 51 91 98 22 36 25 51 25 141 0 78 -4 106 -18 127 -9 14 -17 29 -17 32 0 6 3 8 699 694 l471 464 0 261 c0 191 3 265 12 274 8 8 62 12 179 12 143 0 168 -2 173 -16 3 -9 6 -393 6 -854 l0 -838 221 -216 221 -216 358 0 c313 0 361 -2 374 -16 9 -8 16 -23 16 -32 1 -31 64 -120 110 -155 69 -52 127 -70 207 -65 147 9 256 100 290 242 36 154 -60 315 -220 368 -67 21 -87 22 -161 1 -73 -20 -135 -60 -173 -111 -47 -65 -28 -62 -374 -62 l-317 0 -49 39 c-26 21 -108 99 -180 173 l-133 135 0 799 c0 439 4 805 8 812 7 9 73 12 298 10 l289 -3 0 -419 0 -418 -44 -24 c-103 -54 -151 -137 -151 -258 0 -127 55 -213 173 -270 51 -24 68 -28 125 -24 103 6 208 66 250 143 40 73 53 166 31 222 -42 106 -77 150 -149 189 -19 10 -38 24 -42 29 -4 6 -8 193 -8 416 0 362 2 408 16 413 9 3 110 6 224 6 197 0 210 -1 220 -19 7 -13 8 -103 4 -265 -4 -203 -3 -249 9 -273 8 -15 53 -63 98 -107 46 -43 154 -146 239 -229 431 -417 824 -791 862 -820 l34 -27 295 -2 294 -3 20 -57 c25 -71 56 -115 109 -154 157 -118 377 -67 463 106 78 157 21 320 -147 415 -28 16 -53 20 -130 19 -112 -1 -157 -19 -231 -96 l-46 -48 -275 0 -276 0 -68 62 c-58 51 -384 363 -528 503 -49 48 -384 367 -465 443 l-56 52 -3 242 c-2 190 0 243 10 249 7 5 160 9 339 9 265 0 329 -3 338 -14 8 -9 11 -81 10 -229 0 -119 2 -221 6 -227 4 -6 45 -44 92 -85 l85 -75 114 0 c101 0 116 -2 134 -20 11 -11 20 -31 20 -43 0 -30 47 -96 92 -131 83 -63 192 -75 282 -31 109 53 166 139 166 250 0 183 -151 305 -334 270 -66 -12 -155 -66 -177 -107 -10 -19 -18 -20 -93 -15 -90 5 -125 18 -173 62 l-33 31 2 179 3 180 285 6 c268 5 327 11 375 36 11 6 37 19 58 29 53 26 87 61 87 88 0 13 7 43 15 67 9 24 13 49 11 56 -4 10 -65 13 -263 15 l-258 3 5 60 c2 33 4 78 5 100 l0 40 -1928 3 c-1783 2 -1928 1 -1934 -14z"/> <path d="M7175 3111 l-80 -6 3 -70 c1 -38 4 -76 7 -82 3 -10 68 -13 279 -13 l275 0 48 -41 c26 -23 71 -62 98 -88 58 -54 141 -129 243 -220 l72 -64 0 -98 c0 -114 16 -155 86 -226 62 -61 122 -86 215 -86 113 0 194 41 262 134 31 41 57 118 57 167 0 45 -20 124 -36 143 -8 8 -14 20 -14 26 0 17 -84 89 -132 114 -63 33 -191 33 -270 0 -58 -25 -58 -25 -80 -5 -52 46 -233 209 -238 215 -22 27 -220 193 -238 200 -25 10 -423 9 -557 0z"/> <path d="M1307 3040 l-207 -5 -176 -170 c-97 -93 -182 -174 -190 -178 -8 -5 -33 0 -60 13 -66 29 -193 28 -260 -1 -65 -29 -144 -112 -167 -175 -22 -63 -21 -165 2 -222 22 -54 90 -135 133 -157 171 -88 376 -20 454 151 24 54 26 66 21 145 l-6 87 174 171 173 171 254 0 c184 0 257 3 266 12 7 7 12 40 12 80 0 64 -2 69 -26 78 -14 6 -62 9 -107 8 -45 -1 -175 -5 -290 -8z"/> </g> </svg> 